<?xml version="1.0" standalone="no"?>
<!DOCTYPE svg PUBLIC "-//W3C//DTD SVG 20010904//EN"
 "http://www.w3.org/TR/2001/REC-SVG-20010904/DTD/svg10.dtd">
<svg version="1.0" xmlns="http://www.w3.org/2000/svg"
 width="56.000000pt" height="56.000000pt" viewBox="0 0 1024.000000 1024.000000"
 preserveAspectRatio="xMidYMid meet">

<g transform="translate(0.000000,1024.000000) scale(0.100000,-0.100000)"
fill="#673ab7" stroke="none">
<path d="M1996 6808 l-396 -423 0 -1266 0 -1266 392 -421 393 -421 1192 0
1191 -1 344 368 c189 202 368 393 396 425 l52 57 0 1155 0 1155 985 0 985 0 0
-1055 0 -1055 -245 0 -245 0 0 -525 0 -525 348 0 347 1 392 420 393 420 0
1267 0 1268 -393 420 -393 419 -1189 2 -1190 3 -392 -421 -393 -420 0 -1164 0
-1165 -990 0 -990 0 0 1055 0 1055 245 0 245 0 0 530 0 530 -344 0 -344 0
-396 -422z"/>
</g>
</svg>
